<?xml version="1.0" encoding="UTF-8" standalone="no"?>
<!DOCTYPE svg PUBLIC "-//W3C//DTD SVG 1.1//EN" "http://www.w3.org/Graphics/SVG/1.1/DTD/svg11.dtd">
<svg width="100%" height="100%" viewBox="0 0 28 28" version="1.1" xmlns="http://www.w3.org/2000/svg" xmlns:xlink="http://www.w3.org/1999/xlink" xml:space="preserve" xmlns:serif="http://www.serif.com/" style="fill-rule:evenodd;clip-rule:evenodd;stroke-linejoin:round;stroke-miterlimit:2;">
    <g>
        <path d="M26,4.442C26,3.094 24.906,2 23.558,2L4.442,2C3.094,2 2,3.094 2,4.442L2,23.558C2,24.906 3.094,26 4.442,26L23.558,26C24.906,26 26,24.906 26,23.558L26,4.442Z" style="fill:#ecfbfc;"/>
        <path d="M26,4.442C26,3.094 24.906,2 23.558,2L4.442,2C3.094,2 2,3.094 2,4.442L2,23.558C2,24.906 3.094,26 4.442,26L23.558,26C24.906,26 26,24.906 26,23.558L26,4.442Z" style="fill:#ecfbfc;"/>
    </g>
</svg>
