<?xml version="1.0" encoding="UTF-8" standalone="no"?>
<!DOCTYPE svg PUBLIC "-//W3C//DTD SVG 1.1//EN" "http://www.w3.org/Graphics/SVG/1.1/DTD/svg11.dtd">
<svg width="100%" height="100%" viewBox="0 0 180 28" version="1.1" xmlns="http://www.w3.org/2000/svg" xmlns:xlink="http://www.w3.org/1999/xlink" xml:space="preserve" xmlns:serif="http://www.serif.com/" style="fill-rule:evenodd;clip-rule:evenodd;stroke-linejoin:round;stroke-miterlimit:2;">
    <g>
        <path d="M178,4.376C178,3.065 176.935,2 175.624,2L4.376,2C3.065,2 2,3.065 2,4.376L2,23.624C2,24.935 3.065,26 4.376,26L175.624,26C176.935,26 178,24.935 178,23.624L178,4.376Z" style="fill:#ecfbfc;"/>
        <path d="M178,4.376C178,3.065 176.935,2 175.624,2L4.376,2C3.065,2 2,3.065 2,4.376L2,23.624C2,24.935 3.065,26 4.376,26L175.624,26C176.935,26 178,24.935 178,23.624L178,4.376Z" style="fill:#ecfbfc;"/>
    </g>
</svg>
